<svg width="176" height="21" viewBox="0 0 176 21" fill="none" xmlns="http://www.w3.org/2000/svg">
<g clip-path="url(#clip0)">
<path d="M105.262 13.896L105.874 18H108.016L105.91 5.58H103.21L96.568 18H98.764L100.852 13.896H105.262ZM105.028 12.33H101.662L104.254 7.254L105.028 12.33ZM116.482 8.19C115.546 8.19 114.808 8.352 113.944 8.928L113.098 9.99L113.368 8.442H111.388L109.714 18H111.694L112.432 13.734C112.972 10.746 114.25 9.684 115.636 9.648C116.896 9.63 117.346 10.296 117.346 11.232C117.346 11.61 117.292 12.078 117.148 12.852L116.23 18H118.192L119.164 12.582C119.362 11.52 119.398 11.142 119.398 10.638C119.398 9.162 118.444 8.19 116.482 8.19ZM126.286 8.19C124 8.19 122.29 9.378 121.876 11.466H123.856C124.126 10.278 124.774 9.63 126.178 9.63C127.186 9.63 127.546 10.17 127.546 10.854C127.546 11.124 127.51 11.43 127.42 12.006L127.384 12.222C123.568 11.952 120.85 13.14 120.85 15.75C120.85 17.46 122.11 18.252 123.478 18.252C124.504 18.252 125.35 18.054 125.962 17.514L126.61 16.632L126.556 18H128.5C128.554 16.938 128.626 16.29 128.752 15.57L129.346 12.222C129.454 11.574 129.526 11.07 129.526 10.62C129.526 9.198 128.59 8.19 126.286 8.19ZM126.988 14.418C126.718 15.84 125.494 16.812 124.432 16.812C123.55 16.812 122.956 16.362 122.956 15.516C122.956 13.896 124.882 13.266 127.15 13.518L126.988 14.418ZM135.17 4.77H133.208L131.372 15.138C131.192 16.092 131.138 16.506 131.138 16.848C131.138 17.82 131.732 18.108 132.74 18.108C133.19 18.108 133.604 18.072 134 18.018L134.234 16.668C133.532 16.722 133.226 16.632 133.226 16.02C133.226 15.804 133.262 15.552 133.352 15.084L135.17 4.77ZM145.951 8.442H143.737L139.705 16.47L138.499 8.442H136.267L138.337 18.504L138.193 18.774C137.581 19.926 136.969 20.304 136.069 20.304C135.853 20.304 135.655 20.286 135.421 20.25L135.187 21.708C135.457 21.762 135.763 21.78 136.087 21.78C137.977 21.78 138.985 20.898 140.605 18L145.951 8.442ZM149.404 9.9H151.15L151.402 8.514H149.656L150.052 6.228H148.09L147.694 8.514H146.38L146.128 9.9H147.442L146.524 15.084C146.38 15.894 146.326 16.362 146.326 16.668C146.326 17.712 146.974 18.18 148.324 18.18C148.81 18.18 149.314 18.108 149.746 18L149.998 16.65C148.9 16.812 148.396 16.65 148.396 15.93C148.396 15.714 148.414 15.498 148.522 14.904L149.404 9.9ZM155.315 5.112C154.523 5.112 153.965 5.724 153.965 6.426C153.965 7.002 154.361 7.398 154.973 7.398C155.783 7.398 156.323 6.768 156.323 6.066C156.323 5.508 155.927 5.112 155.315 5.112ZM154.019 18L155.711 8.442H153.731L152.039 18H154.019ZM162.501 8.208C158.955 8.208 156.921 11.16 156.921 14.4C156.921 16.992 158.523 18.252 160.719 18.252C163.167 18.252 164.715 17.118 165.633 14.832H163.617C163.113 16.128 162.159 16.812 160.953 16.812C159.873 16.812 159.045 16.056 159.045 14.364C159.045 11.628 160.377 9.648 162.231 9.648C163.419 9.648 164.067 10.332 164.121 11.772H166.119C166.101 9.648 164.967 8.208 162.501 8.208ZM171.466 8.208C168.964 8.208 167.686 9.558 167.686 11.142C167.686 12.78 168.802 13.392 170.296 13.86C171.736 14.328 172.258 14.778 172.258 15.552C172.258 16.434 171.52 16.956 170.548 16.956C169.522 16.956 168.73 16.506 168.604 15.246H166.588C166.678 16.884 167.758 18.36 170.44 18.36C172.87 18.36 174.364 17.118 174.364 15.372C174.364 13.824 173.428 13.05 171.574 12.474C170.404 12.114 169.792 11.736 169.792 10.908C169.792 10.224 170.26 9.594 171.394 9.594C172.33 9.594 172.798 10.188 172.87 11.196H174.868C174.814 9.45 173.824 8.208 171.466 8.208Z" fill="#8E8C95"/>
<rect y="10" width="65" height="2" fill="#D1D0D6"/>
</g>
<defs>
<clipPath id="clip0">
<rect width="176" height="21" fill="white"/>
</clipPath>
</defs>
</svg>
