<svg width="172" height="21" viewBox="0 0 172 21" fill="none" xmlns="http://www.w3.org/2000/svg">
<g clip-path="url(#clip0)">
<path d="M101.698 7.146H108.106L108.394 5.58H99.988L97.792 18H99.772L100.726 12.564H106.486L106.756 10.998H101.014L101.698 7.146ZM117.272 13.77C117.452 13.194 117.56 12.456 117.56 11.844C117.56 9.702 116.21 8.19 113.762 8.19C110.072 8.19 108.326 11.43 108.326 14.436C108.326 16.974 109.928 18.252 112.142 18.252C114.266 18.252 116.21 17.172 116.984 14.904H114.968C114.572 16.11 113.546 16.812 112.394 16.812C111.242 16.812 110.414 16.092 110.414 14.4C110.414 14.202 110.414 13.986 110.432 13.77H117.272ZM113.528 9.63C114.806 9.63 115.562 10.44 115.562 11.844C115.562 12.006 115.562 12.186 115.544 12.384H110.666C111.062 10.89 111.944 9.63 113.528 9.63ZM123.983 8.19C121.697 8.19 119.987 9.378 119.573 11.466H121.553C121.823 10.278 122.471 9.63 123.875 9.63C124.883 9.63 125.243 10.17 125.243 10.854C125.243 11.124 125.207 11.43 125.117 12.006L125.081 12.222C121.265 11.952 118.547 13.14 118.547 15.75C118.547 17.46 119.807 18.252 121.175 18.252C122.201 18.252 123.047 18.054 123.659 17.514L124.307 16.632L124.253 18H126.197C126.251 16.938 126.323 16.29 126.449 15.57L127.043 12.222C127.151 11.574 127.223 11.07 127.223 10.62C127.223 9.198 126.287 8.19 123.983 8.19ZM124.685 14.418C124.415 15.84 123.191 16.812 122.129 16.812C121.247 16.812 120.653 16.362 120.653 15.516C120.653 13.896 122.579 13.266 124.847 13.518L124.685 14.418ZM132.273 9.9H134.019L134.271 8.514H132.525L132.921 6.228H130.959L130.563 8.514H129.249L128.997 9.9H130.311L129.393 15.084C129.249 15.894 129.195 16.362 129.195 16.668C129.195 17.712 129.843 18.18 131.193 18.18C131.679 18.18 132.183 18.108 132.615 18L132.867 16.65C131.769 16.812 131.265 16.65 131.265 15.93C131.265 15.714 131.283 15.498 131.391 14.904L132.273 9.9ZM144.935 8.442H142.973L142.217 12.708L142.199 12.762C141.677 15.714 140.399 16.758 139.013 16.776C137.771 16.812 137.303 16.128 137.303 15.21C137.303 14.832 137.357 14.346 137.501 13.59L138.437 8.442H136.457L135.485 13.842C135.287 14.922 135.251 15.3 135.251 15.804C135.251 17.28 136.223 18.252 138.167 18.252C139.121 18.252 139.841 18.09 140.705 17.514L141.551 16.452L141.281 18H143.261L144.935 8.442ZM152.131 8.208C151.645 8.208 151.051 8.406 150.565 8.748L149.503 10.08L149.791 8.46H147.829L146.137 18H148.117L148.981 13.032C149.431 10.53 150.871 9.738 152.509 9.864L152.779 8.316C152.599 8.244 152.401 8.208 152.131 8.208ZM161.794 13.77C161.974 13.194 162.082 12.456 162.082 11.844C162.082 9.702 160.732 8.19 158.284 8.19C154.594 8.19 152.848 11.43 152.848 14.436C152.848 16.974 154.45 18.252 156.664 18.252C158.788 18.252 160.732 17.172 161.506 14.904H159.49C159.094 16.11 158.068 16.812 156.916 16.812C155.764 16.812 154.936 16.092 154.936 14.4C154.936 14.202 154.936 13.986 154.954 13.77H161.794ZM158.05 9.63C159.328 9.63 160.084 10.44 160.084 11.844C160.084 12.006 160.084 12.186 160.066 12.384H155.188C155.584 10.89 156.466 9.63 158.05 9.63ZM167.533 8.208C165.031 8.208 163.753 9.558 163.753 11.142C163.753 12.78 164.869 13.392 166.363 13.86C167.803 14.328 168.325 14.778 168.325 15.552C168.325 16.434 167.587 16.956 166.615 16.956C165.589 16.956 164.797 16.506 164.671 15.246H162.655C162.745 16.884 163.825 18.36 166.507 18.36C168.937 18.36 170.431 17.118 170.431 15.372C170.431 13.824 169.495 13.05 167.641 12.474C166.471 12.114 165.859 11.736 165.859 10.908C165.859 10.224 166.327 9.594 167.461 9.594C168.397 9.594 168.865 10.188 168.937 11.196H170.935C170.881 9.45 169.891 8.208 167.533 8.208Z" fill="#8E8C95"/>
<rect y="10" width="65" height="2" fill="#D1D0D6"/>
</g>
<defs>
<clipPath id="clip0">
<rect width="172" height="21" fill="white"/>
</clipPath>
</defs>
</svg>
