<svg width="83" height="34" viewBox="0 0 83 34" fill="none" xmlns="http://www.w3.org/2000/svg">
<g clip-path="url(#clip0)">
<path d="M5.724 9.328C3.348 9.328 1.278 10.678 1.278 12.964C1.278 15.25 2.88 16.132 5.418 16.744C7.254 17.176 7.902 17.788 7.902 18.832C7.902 19.786 7.002 20.398 5.868 20.398C4.608 20.398 3.564 19.696 3.294 18.328H0.756C0.99 20.938 2.934 22.252 5.904 22.252C8.352 22.252 10.494 20.92 10.494 18.58C10.494 16.582 9.27 15.322 6.534 14.692C4.554 14.224 3.888 13.702 3.888 12.658C3.888 11.65 4.644 11.182 5.634 11.182C6.93 11.182 7.632 11.974 7.776 13.234H10.314C10.044 11.02 8.694 9.328 5.724 9.328ZM17.8472 22H20.2772C20.1332 20.938 20.0972 20.29 20.0972 19.57V16.474C20.0972 15.952 20.0792 15.448 20.0432 14.998C19.8992 13.342 18.8912 12.172 16.2092 12.172C13.9232 12.172 12.1772 13.396 12.1052 15.556L14.5172 15.538C14.5892 14.494 15.1292 13.918 16.1192 13.918C17.0912 13.918 17.5232 14.404 17.5952 15.07C17.6312 15.394 17.6312 15.682 17.6312 15.97V16.168H17.0192C13.5452 16.168 11.7452 17.356 11.7452 19.462C11.7452 21.28 13.1672 22.252 14.8232 22.252C15.7232 22.252 16.5332 22.072 17.1992 21.622L17.6672 20.596L17.8472 22ZM15.7772 20.506C14.8952 20.506 14.3192 20.11 14.3192 19.264C14.3192 18.004 15.6512 17.554 17.6312 17.698V18.472C17.6312 19.804 16.7852 20.506 15.7772 20.506ZM31.6646 12.424H28.9826L26.6246 20.128L24.2126 12.424H21.4586L25.1846 22H27.9566L31.6646 12.424ZM41.3655 17.014C41.3655 14.404 39.8175 12.172 36.8835 12.172C33.9495 12.172 32.0235 14.314 32.0235 17.248C32.0235 20.614 34.0575 22.252 36.6855 22.252C38.9355 22.252 40.7355 21.118 41.2215 18.886H38.7375C38.5755 19.912 37.8015 20.506 36.7395 20.506C35.5875 20.506 34.6875 19.876 34.5255 17.86H41.3295C41.3655 17.536 41.3655 17.248 41.3655 17.014ZM36.7755 13.918C37.9635 13.918 38.6475 14.728 38.8095 16.24H34.5975C34.8135 14.656 35.6235 13.918 36.7755 13.918ZM54.1578 9.58H52.9338C52.2498 9.58 51.6018 9.76 50.9358 10.138L48.0558 11.848V14.188L51.6738 12.19V22H54.1578V9.58ZM63.5378 13.666C62.8178 13.666 62.1698 13.81 61.5938 14.152L60.9818 14.998L61.4498 11.524H67.1558V9.58H59.4158L58.5338 16.924H60.8378C61.2698 15.934 61.8998 15.52 62.8718 15.52C64.2218 15.52 65.0138 16.51 65.0138 17.968C65.0138 19.426 64.2038 20.398 62.8178 20.398C61.6298 20.398 60.9998 19.696 60.8198 18.598L60.8018 18.418H58.3178L58.3358 18.598C58.5878 21.1 60.1718 22.252 62.9438 22.252C65.3738 22.252 67.6598 20.722 67.6598 17.878C67.6598 15.322 66.1478 13.666 63.5378 13.666ZM72.1618 9.364C70.4518 9.364 69.3898 10.462 69.3898 12.316C69.3898 14.17 70.4518 15.286 72.1618 15.286C73.8898 15.286 74.9518 14.17 74.9518 12.316C74.9518 10.462 73.8898 9.364 72.1618 9.364ZM72.5938 22L80.6578 9.58H78.7318L70.6678 22H72.5938ZM72.1618 10.678C72.8278 10.678 73.2058 11.254 73.2058 12.316C73.2058 13.378 72.8278 13.972 72.1618 13.972C71.4958 13.972 71.1358 13.378 71.1358 12.316C71.1358 11.254 71.4958 10.678 72.1618 10.678ZM79.0558 16.33C77.3458 16.33 76.2658 17.428 76.2658 19.282C76.2658 21.136 77.3458 22.252 79.0558 22.252C80.7838 22.252 81.8458 21.136 81.8458 19.282C81.8458 17.428 80.7838 16.33 79.0558 16.33ZM79.0558 17.644C79.7218 17.644 80.0818 18.22 80.0818 19.282C80.0818 20.344 79.7218 20.938 79.0558 20.938C78.3898 20.938 78.0298 20.344 78.0298 19.282C78.0298 18.22 78.3898 17.644 79.0558 17.644Z" fill="#1E5579"/>
<path d="M0 34C0 34 37.8639 28.482 83 30.5761" stroke="#1E5579" stroke-width="2" stroke-linecap="round" stroke-linejoin="round"/>
</g>
<defs>
<clipPath id="clip0">
<rect width="83" height="34" fill="white"/>
</clipPath>
</defs>
</svg>
