<svg width="220" height="14" viewBox="0 0 220 14" fill="none" xmlns="http://www.w3.org/2000/svg">
<path d="M112.84 0.579999H109.564L104.596 10.948L103.228 0.579999H99.988L97.792 13H99.772L101.608 2.416L103.012 13H105.424L110.536 2.614L108.664 13H110.644L112.84 0.579999ZM119.305 3.19C115.399 3.19 113.689 6.322 113.689 9.022C113.689 11.29 114.931 13.252 117.937 13.252C121.825 13.252 123.535 10.12 123.535 7.42C123.535 5.152 122.293 3.19 119.305 3.19ZM118.135 11.812C116.533 11.812 115.813 10.552 115.813 8.968C115.813 6.88 116.929 4.63 119.089 4.63C120.709 4.63 121.411 5.89 121.411 7.456C121.411 9.544 120.313 11.812 118.135 11.812ZM130.821 3.208C130.335 3.208 129.741 3.406 129.255 3.748L128.193 5.08L128.481 3.46H126.519L124.827 13H126.807L127.671 8.032C128.121 5.53 129.561 4.738 131.199 4.864L131.469 3.316C131.289 3.244 131.091 3.208 130.821 3.208ZM140.484 8.77C140.664 8.194 140.772 7.456 140.772 6.844C140.772 4.702 139.422 3.19 136.974 3.19C133.284 3.19 131.538 6.43 131.538 9.436C131.538 11.974 133.14 13.252 135.354 13.252C137.478 13.252 139.422 12.172 140.196 9.904H138.18C137.784 11.11 136.758 11.812 135.606 11.812C134.454 11.812 133.626 11.092 133.626 9.4C133.626 9.202 133.626 8.986 133.644 8.77H140.484ZM136.74 4.63C138.018 4.63 138.774 5.44 138.774 6.844C138.774 7.006 138.774 7.186 138.756 7.384H133.878C134.274 5.89 135.156 4.63 136.74 4.63ZM149.858 2.146H156.266L156.554 0.579999H148.148L145.952 13H147.932L148.886 7.564H154.646L154.916 5.998H149.174L149.858 2.146ZM165.432 8.77C165.612 8.194 165.72 7.456 165.72 6.844C165.72 4.702 164.37 3.19 161.922 3.19C158.232 3.19 156.486 6.43 156.486 9.436C156.486 11.974 158.088 13.252 160.302 13.252C162.426 13.252 164.37 12.172 165.144 9.904H163.128C162.732 11.11 161.706 11.812 160.554 11.812C159.402 11.812 158.574 11.092 158.574 9.4C158.574 9.202 158.574 8.986 158.592 8.77H165.432ZM161.688 4.63C162.966 4.63 163.722 5.44 163.722 6.844C163.722 7.006 163.722 7.186 163.704 7.384H158.826C159.222 5.89 160.104 4.63 161.688 4.63ZM172.143 3.19C169.857 3.19 168.147 4.378 167.733 6.466H169.713C169.983 5.278 170.631 4.63 172.035 4.63C173.043 4.63 173.403 5.17 173.403 5.854C173.403 6.124 173.367 6.43 173.277 7.006L173.241 7.222C169.425 6.952 166.707 8.14 166.707 10.75C166.707 12.46 167.967 13.252 169.335 13.252C170.361 13.252 171.207 13.054 171.819 12.514L172.467 11.632L172.413 13H174.357C174.411 11.938 174.483 11.29 174.609 10.57L175.203 7.222C175.311 6.574 175.383 6.07 175.383 5.62C175.383 4.198 174.447 3.19 172.143 3.19ZM172.845 9.418C172.575 10.84 171.351 11.812 170.289 11.812C169.407 11.812 168.813 11.362 168.813 10.516C168.813 8.896 170.739 8.266 173.007 8.518L172.845 9.418ZM180.434 4.9H182.18L182.432 3.514H180.686L181.082 1.228H179.12L178.724 3.514H177.41L177.158 4.9H178.472L177.554 10.084C177.41 10.894 177.356 11.362 177.356 11.668C177.356 12.712 178.004 13.18 179.354 13.18C179.84 13.18 180.344 13.108 180.776 13L181.028 11.65C179.93 11.812 179.426 11.65 179.426 10.93C179.426 10.714 179.444 10.498 179.552 9.904L180.434 4.9ZM193.095 3.442H191.133L190.377 7.708L190.359 7.762C189.837 10.714 188.559 11.758 187.173 11.776C185.931 11.812 185.463 11.128 185.463 10.21C185.463 9.832 185.517 9.346 185.661 8.59L186.597 3.442H184.617L183.645 8.842C183.447 9.922 183.411 10.3 183.411 10.804C183.411 12.28 184.383 13.252 186.327 13.252C187.281 13.252 188.001 13.09 188.865 12.514L189.711 11.452L189.441 13H191.421L193.095 3.442ZM200.291 3.208C199.805 3.208 199.211 3.406 198.725 3.748L197.663 5.08L197.951 3.46H195.989L194.297 13H196.277L197.141 8.032C197.591 5.53 199.031 4.738 200.669 4.864L200.939 3.316C200.759 3.244 200.561 3.208 200.291 3.208ZM209.954 8.77C210.134 8.194 210.242 7.456 210.242 6.844C210.242 4.702 208.892 3.19 206.444 3.19C202.754 3.19 201.008 6.43 201.008 9.436C201.008 11.974 202.61 13.252 204.824 13.252C206.948 13.252 208.892 12.172 209.666 9.904H207.65C207.254 11.11 206.228 11.812 205.076 11.812C203.924 11.812 203.096 11.092 203.096 9.4C203.096 9.202 203.096 8.986 203.114 8.77H209.954ZM206.21 4.63C207.488 4.63 208.244 5.44 208.244 6.844C208.244 7.006 208.244 7.186 208.226 7.384H203.348C203.744 5.89 204.626 4.63 206.21 4.63ZM215.693 3.208C213.191 3.208 211.913 4.558 211.913 6.142C211.913 7.78 213.029 8.392 214.523 8.86C215.963 9.328 216.485 9.778 216.485 10.552C216.485 11.434 215.747 11.956 214.775 11.956C213.749 11.956 212.957 11.506 212.831 10.246H210.815C210.905 11.884 211.985 13.36 214.667 13.36C217.097 13.36 218.591 12.118 218.591 10.372C218.591 8.824 217.655 8.05 215.801 7.474C214.631 7.114 214.019 6.736 214.019 5.908C214.019 5.224 214.487 4.594 215.621 4.594C216.557 4.594 217.025 5.188 217.097 6.196H219.095C219.041 4.45 218.051 3.208 215.693 3.208Z" fill="#8E8C95"/>
<rect y="5" width="65" height="2" fill="#D1D0D6"/>
</svg>
