<svg width="1138" height="40" viewBox="0 0 1138 40" fill="none" xmlns="http://www.w3.org/2000/svg">
<path fill-rule="evenodd" clip-rule="evenodd" d="M201.848 9.95081H198.013V30.8467H201.848V22.1553H209.937V30.8467H213.778V9.95081H209.937V18.4634H201.848V9.95081ZM222.751 27.2132C224.502 27.2132 225.928 25.7898 225.928 24.0406V15.0442H229.564V24.0406C229.564 27.7938 226.507 30.8467 222.751 30.8467C218.994 30.8467 215.937 27.7938 215.937 24.0406V15.0442H219.574V24.0406C219.574 25.7898 221 27.2132 222.751 27.2132ZM239.718 15.1496C237.914 15.1496 236.654 15.6726 235.438 16.8653V9.95081H231.789V22.7652C231.789 27.5618 235.261 30.8467 239.161 30.8467C243.496 30.8467 247.295 27.5032 247.295 22.9983C247.295 18.5506 243.792 15.1496 239.718 15.1496ZM235.445 22.9983C235.445 25.4112 237.336 27.4742 239.809 27.4742C241.904 27.4742 243.796 25.4112 243.796 22.9983C243.796 20.585 241.904 18.5214 239.809 18.5214C237.336 18.5214 235.445 20.585 235.445 22.9983ZM253.424 16.0679C253.424 14.2354 254.646 13.6544 255.984 13.6544C257.062 13.6544 258.487 14.4683 259.417 15.4569L261.803 12.6665C260.611 11.0679 258.196 9.96304 256.217 9.96304C252.26 9.96304 249.408 12.2596 249.408 16.0679C249.408 20.1083 252.255 21.105 254.692 21.9581C256.515 22.5964 258.109 23.1543 258.109 24.8467C258.109 26.0662 256.916 27.1428 255.549 27.1428C253.592 27.1428 252.837 26.2792 251.973 25.2928L251.973 25.2924L251.972 25.2911C251.885 25.1922 251.798 25.092 251.708 24.9914L249.059 27.7234C250.748 29.7875 252.842 30.8344 255.345 30.8344C259.098 30.8344 262.124 28.5089 262.124 24.8748C262.124 20.1421 258.961 19.1514 256.449 18.3649C254.795 17.8472 253.424 17.4179 253.424 16.0679ZM264.359 23.0254C264.359 18.2278 267.831 14.9448 271.731 14.9448C276.066 14.9448 279.866 18.2874 279.866 22.7929C279.866 27.2407 276.362 30.6413 272.288 30.6413C270.483 30.6413 269.225 30.1174 268.008 28.9255V35.8729H264.359V23.0254ZM272.379 27.2699C269.907 27.2699 268.016 25.2041 268.016 22.7929C268.016 20.3796 269.907 18.316 272.379 18.316C274.474 18.316 276.366 20.3796 276.366 22.7929C276.366 25.2041 274.474 27.2699 272.379 27.2699ZM303.962 25.1195C303.962 26.5444 304.573 27.4742 306.726 27.4742C307.134 27.4742 307.6 27.4452 308.007 27.4171L307.105 30.7306C306.755 30.8166 306.115 30.8467 305.649 30.8467C302.537 30.8467 300.268 29.1895 300.268 25.9044V13.0561L303.962 11.3995V15.6149H307.308V18.812H303.962V25.1195Z" fill="#64626A"/>
<path fill-rule="evenodd" clip-rule="evenodd" d="M294.189 16.1059C295.419 16.8316 296.403 17.7955 297.103 18.9978C297.79 20.1914 298.117 21.4942 298.117 22.9062V22.9779C298.117 24.4134 297.71 25.7181 296.972 26.899C296.237 28.0766 295.264 28.9991 294.022 29.6737C292.843 30.312 291.588 30.6241 290.258 30.6241H290.038C288.835 30.6241 287.736 30.362 286.74 29.9319C286.235 29.714 285.765 29.4614 285.331 29.1614L282.159 32.3304C282.234 32.5686 282.273 32.8193 282.273 33.0762C282.274 33.4026 282.21 33.726 282.085 34.0276C281.96 34.3292 281.777 34.6031 281.545 34.8334C281.314 35.065 281.04 35.2486 280.738 35.3737C280.436 35.4987 280.112 35.5627 279.785 35.5618C279.458 35.5627 279.135 35.4988 278.833 35.3737C278.531 35.2487 278.256 35.065 278.026 34.8334C277.556 34.364 277.297 33.7401 277.297 33.0762C277.296 32.7497 277.36 32.4262 277.484 32.1244C277.609 31.8227 277.793 31.5487 278.025 31.3184C278.359 30.9823 278.784 30.7496 279.247 30.648C279.711 30.5465 280.194 30.5804 280.639 30.7458L283.707 27.6727C283.199 27.0471 282.79 26.3551 282.509 25.594C282.191 24.7224 282.004 23.7946 282.004 22.8118V22.5197C282.004 21.1197 282.455 19.8362 283.193 18.6697C283.557 18.0975 284.012 17.5875 284.501 17.1391L275.255 10.4839L274.582 9.97397C274.098 10.2654 273.537 10.4427 272.93 10.4427C271.151 10.4427 269.711 9.00256 269.711 7.2265C269.711 5.45023 271.15 4.0105 272.928 4.0105C274.707 4.0105 276.147 5.45023 276.147 7.2265C276.147 7.52269 276.089 7.80342 276.013 8.07579C278.451 9.92356 282.212 12.7775 284.59 14.5824C285.322 15.1379 285.923 15.5941 286.315 15.8909C287.128 15.4796 288.02 15.212 288.879 15.0879V11.2658C287.805 10.8102 287.176 9.80162 287.176 8.62502C287.176 7.02131 288.486 5.72174 290.092 5.72174C291.696 5.72174 292.983 7.02131 292.983 8.62502C292.983 9.80162 292.316 10.8102 291.242 11.2658V15.0862C292.316 15.232 293.27 15.5713 294.189 16.1059ZM290.258 27.19C291.377 27.19 292.366 26.6013 293.227 25.6455C293.977 24.822 294.352 23.9148 294.352 22.9352C294.352 22.7884 294.346 22.6347 294.334 22.4847C294.259 21.7629 294.025 21.1003 293.632 20.4861C293.227 19.872 292.705 19.4052 292.067 19.0635C291.44 18.7431 290.776 18.6048 290.074 18.6048H290.002C289.228 18.6048 288.533 18.815 287.883 19.2434C287.22 19.6748 286.722 20.2174 286.353 20.9151C286.008 21.5534 285.871 22.2293 285.871 22.9421V23.1623C285.871 23.8873 286.112 24.5711 286.555 25.1974C286.984 25.8355 287.508 26.3394 288.198 26.6927C288.81 27.0136 289.435 27.19 290.074 27.19H290.258Z" fill="#64626A"/>
<path fill-rule="evenodd" clip-rule="evenodd" d="M443.619 16.4C444.602 15.6358 445.8 15.127 447.056 15.0909C448.567 14.9726 450.082 15.4944 451.256 16.4364C451.697 16.7301 452.003 17.1956 452.31 17.6621C452.376 17.7632 452.443 17.8643 452.51 17.9637V15.4182H454.638V34.5455H452.51C452.511 33.3706 452.511 32.1926 452.51 31.0157C452.51 29.8395 452.51 28.6644 452.51 27.4946C452.485 27.1655 452.16 27.5879 452.183 27.6909C452.153 27.7277 452.123 27.7652 452.092 27.8031C451.797 28.1697 451.468 28.5779 451.11 28.8C449.533 30.0196 447.346 30.3274 445.459 29.7284C444.87 29.5754 444.313 29.2205 443.816 28.9043C443.73 28.8498 443.647 28.7965 443.565 28.7455C442.878 28.1791 442.413 27.516 441.979 26.7516C440.863 24.6023 440.74 21.9957 441.437 19.6935C441.678 18.8695 442.105 18.132 442.608 17.4417C442.84 17.0659 443.268 16.6511 443.619 16.4ZM450.583 17.9091C449.886 17.2913 448.778 17.0157 447.801 17.0182C447.361 17.0057 446.916 17.0504 446.496 17.1862C445.63 17.3908 444.923 17.9683 444.383 18.6364C443.581 19.7 443.33 21.0712 443.277 22.3783C443.258 23.8842 443.554 25.5288 444.589 26.6654C445.145 27.324 445.879 27.8192 446.745 27.9677C448.052 28.1957 449.549 28.0478 450.583 27.1637C451.285 26.6001 451.821 25.8745 452.1 25.0157C452.721 23.2399 452.65 21.2067 451.855 19.4969C451.555 18.8352 451.139 18.3595 450.583 17.9091Z" fill="#64626A"/>
<path d="M431.429 9.61819C429.811 9.68299 428.163 10.1074 426.866 11.1091C426.599 11.2859 426.305 11.605 426.121 11.8823C425.329 12.8821 424.925 14.1815 425.051 15.4581C425.096 16.3868 425.439 17.2897 426.066 17.9818C426.249 18.2583 426.603 18.5722 426.891 18.7535C428.566 20.0553 430.745 20.2971 432.721 20.889C433.956 21.2649 435.385 21.52 436.193 22.6182C436.877 23.4537 436.858 24.7095 436.484 25.6909C436.164 26.4948 435.465 27.0695 434.72 27.4727C433.16 28.1477 431.353 28.1039 429.739 27.6519C428.523 27.2797 427.444 26.5571 426.654 25.5551C426.452 25.2259 426.273 25.0138 425.957 25.3942C425.478 25.7295 424.999 26.0647 424.52 26.4C424.905 27.0041 425.359 27.5841 425.902 28C426.831 28.7103 427.838 29.3384 428.98 29.6331C431.117 30.2699 433.49 30.2036 435.556 29.3455C436.391 28.9098 437.187 28.4696 437.777 27.7388C438.541 26.8367 439.031 25.5714 439.055 24.3384C439.117 23.1547 438.735 21.9541 437.956 21.0546C437.808 20.8206 437.54 20.5814 437.283 20.4319C436.894 20.0863 436.453 19.8697 435.977 19.6116C433.85 18.5477 431.424 18.3181 429.252 17.3883C428.587 17.0576 427.92 16.5995 427.575 15.9273C427.057 14.7794 427.46 13.3266 428.473 12.5986C429.358 11.8895 430.573 11.6809 431.695 11.6727C433.642 11.6528 435.617 12.5022 436.793 14.0727C437.375 13.6364 437.956 13.2 438.538 12.7637C438.028 12.0531 437.39 11.5027 436.692 11.032C435.15 10.0182 433.273 9.52322 431.429 9.61819Z" fill="#64626A"/>
<path d="M458.228 24.6908C458.23 25.9402 458.484 27.2383 459.246 28.2545C459.579 28.7963 460.237 29.227 460.821 29.546C462.348 30.2525 464.181 30.1445 465.693 29.4519C466.382 29.0792 467.043 28.6155 467.483 28.0181C467.684 27.8322 467.911 27.3044 468.028 27.2763C468.028 28.0811 468.028 28.886 468.028 29.6908C468.737 29.6908 469.446 29.6908 470.155 29.6908C470.155 24.9332 470.155 20.1757 470.155 15.4181C469.446 15.4181 468.737 15.4181 468.028 15.4181C468.013 18.3331 468.062 21.2497 467.992 24.1635C467.82 25.3368 467.287 26.4698 466.319 27.1817C465.146 28.0754 463.446 28.2926 462.064 27.7454C461.096 27.3104 460.545 26.2482 460.476 25.2049C460.309 23.3798 460.427 21.5429 460.392 19.7126C460.392 18.2811 460.392 16.8496 460.392 15.4181C459.67 15.4181 458.949 15.4181 458.228 15.4181C458.228 18.509 458.228 21.5999 458.228 24.6908Z" fill="#64626A"/>
<path fill-rule="evenodd" clip-rule="evenodd" d="M473.709 16.8183C475.215 15.7513 477.045 15.151 478.891 15.091C480.263 15.0133 481.736 15.2607 482.898 16.0217C483.785 16.5162 484.325 17.5662 484.491 18.5819C484.537 20.9901 484.532 23.3994 484.527 25.8086C484.524 27.1028 484.522 28.397 484.527 29.691H482.473V28.6001C482.448 28.5218 482.461 28.414 482.474 28.305C482.496 28.1144 482.519 27.92 482.345 27.8728C482.212 27.9708 482.127 28.1011 482.041 28.2338C481.943 28.384 481.843 28.5372 481.669 28.6501C481.042 29.2175 480.239 29.6644 479.367 29.8628C477.889 30.1487 476.257 30.0869 474.927 29.3274C474.83 29.256 474.727 29.1883 474.626 29.1211C474.359 28.9452 474.098 28.7726 473.945 28.5456C473.544 28.033 473.212 27.4688 473.083 26.8221C472.857 25.6762 472.91 24.3637 473.673 23.4183C474.03 22.8685 474.605 22.4414 475.226 22.1509C476.227 21.6993 477.313 21.5447 478.396 21.3907C478.806 21.3325 479.215 21.2743 479.618 21.2001C480.393 21.0521 481.302 20.8409 481.836 20.3274C482.475 19.8371 482.56 18.8561 482.187 18.1726C481.534 17.1653 480.197 16.9482 479.062 16.9638C477.503 17.0264 475.89 17.4198 474.636 18.3819L473.709 16.8183ZM482.402 22.9784C482.393 22.5879 482.385 22.1992 482.4 21.8183V21.691C482.169 21.9241 481.888 22.0847 481.582 22.2547C480.765 22.5731 479.903 22.7241 479.04 22.8753C478.271 23.0101 477.502 23.1449 476.764 23.3984C476.1 23.6169 475.476 24.0485 475.276 24.7461C475.016 25.5502 475.119 26.5451 475.655 27.2001C476.408 28.1033 477.704 28.2429 478.815 28.1504C480.068 28.0532 481.284 27.3971 481.897 26.286C482.451 25.2674 482.426 24.1153 482.402 22.9784Z" fill="#64626A"/>
<path d="M494.336 15.1454C493.2 15.2339 492.09 15.7521 491.303 16.4947C490.958 16.8749 490.635 17.3514 490.336 17.8181C490.336 17.0181 490.336 16.2181 490.336 15.4181C489.627 15.4181 488.918 15.4181 488.208 15.4181C488.208 20.1757 488.208 24.9333 488.208 29.6908C488.918 29.6908 489.627 29.6908 490.336 29.6908C490.355 26.9084 490.291 24.1227 490.38 21.3423C490.545 19.9959 491.108 18.6253 492.254 17.8363C493.276 17.0674 494.739 17.0085 495.918 17.4726C496.17 17.3437 496.068 16.9074 496.203 16.6605C496.296 16.307 496.388 15.9535 496.481 15.5999C495.838 15.2282 495.07 15.1016 494.336 15.1454Z" fill="#64626A"/>
<path fill-rule="evenodd" clip-rule="evenodd" d="M500.162 16.2363C501.192 15.5553 502.391 15.1122 503.635 15.0909C505.099 15.0011 506.652 15.3627 507.853 16.2181C507.872 16.2318 507.891 16.2455 507.91 16.2592C508.348 16.5733 508.796 16.8944 509.079 17.3309C510.305 18.8693 510.748 20.9212 510.508 22.8545H500.548C500.422 22.8897 500.271 22.8718 500.121 22.854C499.876 22.8251 499.633 22.7964 499.508 23C499.538 24.2961 499.85 25.7059 500.807 26.6268C501.947 27.9265 503.859 28.2766 505.505 27.9576C506.695 27.7497 507.77 27.093 508.508 26.1454C508.748 26.3636 508.987 26.5817 509.226 26.7999C509.465 27.0181 509.705 27.2363 509.944 27.4545C509.595 27.8834 509.236 28.234 508.8 28.5291C507.412 29.6879 505.551 30.1077 503.773 30.0087C502.437 29.9678 501.119 29.5461 500.035 28.7636C499.774 28.5805 499.481 28.3528 499.212 28.0778C498.556 27.3225 497.943 26.3803 497.654 25.3649C496.991 23.1493 497.11 20.6574 498.162 18.5818C498.551 17.9181 498.953 17.2838 499.485 16.7684C499.672 16.6068 499.875 16.4533 500.058 16.3152C500.093 16.2883 500.128 16.262 500.162 16.2363ZM507.85 19.0535C507.192 17.7904 505.818 16.9941 504.399 16.9091C503.377 16.8371 502.306 17.026 501.441 17.59C501.357 17.6747 501.25 17.7605 501.142 17.8472C500.961 17.9927 500.777 18.1409 500.69 18.2909C499.913 19.0476 499.664 20.1726 499.526 21.2181H508.362C508.347 20.4726 508.163 19.7267 507.85 19.0535Z" fill="#64626A"/>
<path fill-rule="evenodd" clip-rule="evenodd" d="M409.376 4.52417H388.741C385.904 4.52417 383.582 6.84574 383.582 9.68352V30.3182C383.582 33.1546 385.904 35.4757 388.741 35.4757H409.376C412.213 35.4757 414.535 33.1546 414.535 30.3182V9.68352C414.535 6.84574 412.213 4.52417 409.376 4.52417ZM408.907 28.2093C408.907 29.1108 408.168 29.847 407.266 29.847H390.85C389.948 29.847 389.209 29.1108 389.209 28.2093V11.7933C389.209 10.8913 389.948 10.1529 390.85 10.1529H407.266C408.168 10.1529 408.907 10.8913 408.907 11.7933V28.2093ZM402.343 24.2209C402.858 24.2209 403.28 23.8002 403.28 23.2826V16.7178C403.28 16.202 402.858 15.7803 402.343 15.7803H395.778C395.262 15.7803 394.841 16.202 394.841 16.7178V23.2826C394.841 23.8002 395.262 24.2209 395.778 24.2209H402.343Z" fill="#64626A"/>
<path d="M40.1982 28.475L41.7345 24.875C43.3947 26.125 45.6 26.775 47.7805 26.775C49.3912 26.775 50.4071 26.15 50.4071 25.2C50.3823 22.55 40.7682 24.625 40.6938 17.975C40.669 14.6 43.6425 12 47.8549 12C50.3575 12 52.8602 12.625 54.6443 14.05L53.2071 17.725C51.5717 16.675 49.5398 15.925 47.6071 15.925C46.2938 15.925 45.4266 16.55 45.4266 17.35C45.4513 19.95 55.1398 18.525 55.2389 24.875C55.2389 28.325 52.3398 30.75 48.177 30.75C45.1292 30.75 42.3292 30.025 40.1982 28.475Z" fill="#64626A"/>
<path d="M99.1469 23.575C98.3788 24.925 96.9416 25.85 95.2814 25.85C92.8283 25.85 90.846 23.85 90.846 21.375C90.846 18.9 92.8283 16.9 95.2814 16.9C96.9416 16.9 98.3788 17.825 99.1469 19.175L103.384 16.8C101.798 13.95 98.7504 12 95.2814 12C90.1522 12 85.9894 16.2 85.9894 21.375C85.9894 26.55 90.1522 30.75 95.2814 30.75C98.7752 30.75 101.798 28.825 103.384 25.95L99.1469 23.575Z" fill="#64626A"/>
<rect x="57.3699" y="4.22498" width="5.30265" height="26.175" fill="#64626A"/>
<path d="M105.465 4.22498V30.4H110.768V22.55L117.062 30.4H123.851L115.848 21.075L123.257 12.375H116.765L110.768 19.6V4.22498H105.465Z" fill="#64626A"/>
<path fill-rule="evenodd" clip-rule="evenodd" d="M78.4318 14.5V12.375H83.7345V30.375H78.4318V28.25C77.5646 29.725 75.4088 30.75 73.154 30.75C68.4956 30.75 64.8283 26.55 64.8283 21.35C64.8283 16.15 68.4956 12 73.154 12C75.4088 12 77.5646 13.025 78.4318 14.5ZM74.2938 25.85C76.0779 25.85 77.6637 24.9 78.4318 23.625V19.2C77.6637 17.9 76.0779 16.9 74.2938 16.9C71.8407 16.9 69.8584 18.9 69.8584 21.375C69.8584 23.85 71.8407 25.85 74.2938 25.85Z" fill="#64626A"/>
<path d="M6.58385 23.7266C6.58385 25.5403 5.11801 27.0061 3.30434 27.0061C1.49068 27.0061 0.0248413 25.5403 0.0248413 23.7266C0.0248413 21.913 1.49068 20.4471 3.30434 20.4471H6.58385V23.7266Z" fill="#64626A"/>
<path d="M8.2236 23.7266C8.2236 21.913 9.68944 20.4471 11.5031 20.4471C13.3168 20.4471 14.7826 21.913 14.7826 23.7266V31.9254C14.7826 33.7391 13.3168 35.2049 11.5031 35.2049C9.68944 35.2049 8.2236 33.7391 8.2236 31.9254V23.7266H8.2236Z" fill="#64626A"/>
<path d="M11.5031 10.559C9.68944 10.559 8.2236 9.09317 8.2236 7.2795C8.2236 5.46584 9.68944 4 11.5031 4C13.3168 4 14.7826 5.46584 14.7826 7.2795V10.559H11.5031Z" fill="#64626A"/>
<path d="M11.5031 12.2236C13.3168 12.2236 14.7826 13.6895 14.7826 15.5031C14.7826 17.3168 13.3168 18.7826 11.5031 18.7826H3.2795C1.46584 18.7826 0 17.3168 0 15.5031C0 13.6895 1.46584 12.2236 3.2795 12.2236H11.5031Z" fill="#64626A"/>
<path d="M24.646 15.5031C24.646 13.6895 26.1118 12.2236 27.9255 12.2236C29.7391 12.2236 31.205 13.6895 31.205 15.5031C31.205 17.3168 29.7391 18.7826 27.9255 18.7826H24.646V15.5031Z" fill="#64626A"/>
<path d="M23.0062 15.5031C23.0062 17.3168 21.5404 18.7826 19.7267 18.7826C17.913 18.7826 16.4472 17.3168 16.4472 15.5031V7.2795C16.4472 5.46584 17.913 4 19.7267 4C21.5404 4 23.0062 5.46584 23.0062 7.2795V15.5031Z" fill="#64626A"/>
<path d="M19.7267 28.6459C21.5404 28.6459 23.0062 30.1117 23.0062 31.9254C23.0062 33.739 21.5404 35.2049 19.7267 35.2049C17.913 35.2049 16.4472 33.739 16.4472 31.9254V28.6459H19.7267Z" fill="#64626A"/>
<path d="M19.7267 27.0061C17.913 27.0061 16.4472 25.5403 16.4472 23.7266C16.4472 21.913 17.913 20.4471 19.7267 20.4471H27.9503C29.764 20.4471 31.2298 21.913 31.2298 23.7266C31.2298 25.5403 29.764 27.0061 27.9503 27.0061H19.7267Z" fill="#64626A"/>
<path fill-rule="evenodd" clip-rule="evenodd" d="M629.142 11.3555C628.722 10.5 628.065 9.8122 626.81 9.50443C625.589 9.20443 624.511 9.35887 623.773 10.0022L621.329 9.17332C621.08 8.64433 620.855 8.10412 620.656 7.55443C620.517 7.15679 620.238 6.8229 619.872 6.61443C618.272 5.70331 613.938 3.53887 612.26 5.74998C612.26 5.74998 612.172 5.84887 612.052 6.02443L611.529 5.84665C611.258 4.90443 610.364 4.1822 609.125 3.87776C608.362 3.69109 607.612 3.73776 606.99 3.96665C606.537 4.13331 606.515 4.6622 606.97 4.8222L608.921 5.50554C609.363 5.66109 609.597 6.14443 609.441 6.58665L609.439 6.59331C609.364 6.80525 609.208 6.97894 609.005 7.07623C608.802 7.17353 608.569 7.18646 608.357 7.1122L606.244 6.48665C606.14 6.45587 606.029 6.45388 605.924 6.48087C605.819 6.50787 605.723 6.56284 605.647 6.63994C605.57 6.71703 605.516 6.81335 605.491 6.91863C605.465 7.02392 605.468 7.13421 605.5 7.23776C605.781 8.17109 606.7 8.99776 607.929 9.29887C608.973 9.55443 609.994 9.3722 610.695 8.88443L611.154 9.03998C611.187 10.1011 612.008 11.3678 612.775 11.8222C613.875 12.474 614.889 11.9744 616.016 11.4187L616.017 11.4184C616.095 11.3802 616.173 11.3417 616.251 11.3033C616.251 11.3033 619.315 13.7478 617.895 20.6822C613.973 21.0944 612.555 22.5044 611.13 23.9266C610.239 23.5733 607.543 23.4 606.108 23.7311C606.514 23.3255 607.189 22.8455 608.016 22.5255C608.2 22.4545 608.357 22.3297 608.469 22.1674C608.58 22.0052 608.639 21.8132 608.639 21.6166C608.639 21.6166 610.435 21.0433 610.435 20.3844C610.435 20.1957 610.253 20.0665 609.972 19.8669C609.272 19.3697 607.957 18.4355 607.307 15.0555C607.159 14.5055 606.992 14.0444 606.145 13.6478C606.145 13.6478 605.909 13.1522 606.252 12.6089C606.307 12.5214 606.359 12.4415 606.408 12.3671L606.408 12.367C606.661 11.9805 606.816 11.745 606.739 11.3844C606.649 10.9544 606.001 10.6 606.001 10.6V9.87776C606.001 9.87776 604.199 8.55665 604.199 6.66665C604.199 4.89219 606.37 2.78452 607.193 1.98569L607.193 1.98547C607.248 1.93255 607.296 1.88538 607.338 1.84443C607.358 1.82568 607.373 1.80255 607.382 1.77688C607.392 1.75122 607.395 1.72373 607.391 1.69665C607.387 1.67008 607.377 1.64483 607.361 1.62272C607.346 1.60062 607.326 1.58222 607.302 1.56887C606.439 1.03331 604.722 0.0777588 602.083 0.0777588C593.067 0.0777588 590.022 7.06156 587.918 11.8867C587.588 12.6429 587.281 13.3461 586.979 13.9611C586.953 14.0099 586.939 14.064 586.938 14.1192C586.936 14.1743 586.948 14.229 586.972 14.2789C588.012 16.3522 589.351 17.3795 590.504 18.2639C591.822 19.2752 592.897 20.0996 593.002 22.0878C593.159 25.0678 592.461 25.1344 591.766 25.0711C591.31 25.0289 590.642 24.6222 590.237 24.3478C590.21 24.3294 590.178 24.32 590.145 24.3208C590.112 24.3216 590.08 24.3327 590.054 24.3524C590.028 24.3722 590.009 24.3996 589.999 24.4308C589.989 24.4621 589.989 24.4956 590 24.5266C590.271 25.34 591.062 27.0144 593.365 27.0144C594.536 27.0144 594.895 25.9533 594.895 24.9755V21.6066C594.895 21.2744 594.799 20.96 594.547 20.7433C593.754 20.0622 592.073 18.4266 592.073 16.9755C592.073 16.3555 592.489 16.0322 592.972 16.0322C593.877 16.0322 594.755 17.3922 595.436 19.1078C595.595 19.5078 595.823 19.7911 596.032 19.93C596.065 19.9522 596.108 19.9511 596.139 19.9278C596.155 19.9167 596.166 19.9012 596.173 19.8833C596.179 19.8654 596.18 19.8461 596.175 19.8278C595.894 18.8322 595.802 17.7922 595.772 17.28C595.766 17.18 595.74 17.0822 595.695 16.9925C595.651 16.9027 595.589 16.8229 595.512 16.7578C594.84 16.1844 593.02 14.3822 593.02 11.69C593.02 8.0622 598.802 8.36554 599.969 8.46443C600.316 9.67554 601.041 10.1978 601.524 10.42C601.419 10.4588 601.305 10.4999 601.186 10.5434L601.185 10.5435C599.314 11.2233 595.826 12.49 595.826 14.5889C595.826 16.9822 599.784 16.8078 599.784 16.8078C599.784 16.8078 599.155 21.5866 603.612 23.0278C603.612 23.0278 602.916 23.7311 600.522 23.7311C598.288 23.7311 597.197 22.7355 596.666 21.5589C596.655 21.5347 596.637 21.5143 596.615 21.5001C596.592 21.486 596.566 21.4788 596.54 21.4794C596.513 21.48 596.487 21.4884 596.466 21.5035C596.444 21.5186 596.427 21.5398 596.417 21.5644C596.295 21.8689 596.199 22.42 596.622 23.1111C596.802 23.4045 596.997 23.6637 597.184 23.9134C597.679 24.5741 598.125 25.1684 598.125 26.1555C598.125 27.1611 597.223 27.7911 596.853 28.0078C596.841 28.0146 596.831 28.0249 596.825 28.0372C596.819 28.0496 596.817 28.0635 596.819 28.0771C596.821 28.0907 596.827 28.1035 596.836 28.1137C596.845 28.1239 596.857 28.1311 596.871 28.1344C597.749 28.3455 601.743 29.3478 604.431 30.6233C604.454 30.6333 604.478 30.6311 604.498 30.6189C604.799 30.43 607.125 28.9122 607.259 26.9111C607.259 26.9111 607.435 25.6033 605.478 25.3666C605.478 25.3666 606.325 25.0389 607.857 25.0389C609.383 25.0389 611.049 26.2766 608.048 32.4389C608.041 32.4541 608.04 32.4714 608.044 32.4876C608.049 32.5038 608.06 32.5177 608.074 32.5266C608.535 32.8155 611.949 34.9911 614.133 37.1067C614.158 37.1305 614.187 37.1488 614.219 37.1605C614.251 37.1721 614.285 37.1769 614.319 37.1743C614.353 37.1718 614.387 37.1621 614.417 37.1458C614.447 37.1296 614.473 37.1071 614.494 37.08C614.775 36.7066 615.321 35.7078 615.723 33.2511C615.741 33.14 615.79 33.0363 615.865 32.9521C615.94 32.8679 616.037 32.8067 616.146 32.7755C617.448 32.4 621.914 30.9533 623.869 28.2689C626.171 25.1055 626.969 24.7644 626.969 24.7644C626.969 24.7644 628.477 23.9222 627.838 21.6933C627.558 20.712 626.268 18.3898 624.836 15.8129L624.836 15.8128C624.569 15.3321 624.297 14.8425 624.026 14.3511C624.425 14.6366 624.9 14.8589 625.43 14.99C626.48 15.2466 627.507 15.0855 628.244 14.6266C628.324 14.5772 628.388 14.5064 628.429 14.4222C628.469 14.338 628.486 14.244 628.475 14.151C628.465 14.058 628.428 13.9699 628.37 13.8967C628.312 13.8236 628.234 13.7685 628.145 13.7378L626.204 13.0578C626.092 13.0187 625.989 12.9582 625.901 12.8795C625.813 12.8009 625.742 12.7057 625.691 12.5995C625.639 12.4932 625.61 12.3779 625.603 12.2602C625.597 12.1424 625.613 12.0246 625.653 11.9133L625.656 11.9066C625.695 11.7954 625.755 11.693 625.834 11.6051C625.913 11.5173 626.008 11.4458 626.114 11.3947C626.221 11.3436 626.336 11.314 626.454 11.3074C626.572 11.3009 626.69 11.3176 626.801 11.3566L628.535 11.9633C628.619 11.9929 628.71 11.9981 628.798 11.9783C628.885 11.9584 628.965 11.9143 629.029 11.8511C629.159 11.7211 629.224 11.52 629.142 11.3555ZM601.339 7.22555C601.365 7.25091 601.399 7.26694 601.435 7.27109C601.507 7.279 601.579 7.28751 601.652 7.29665C601.691 7.30161 601.731 7.29191 601.764 7.26937C601.797 7.24684 601.82 7.21305 601.83 7.17443C602.509 4.37331 604.4 2.68109 605.009 2.19665C605.03 2.1798 605.046 2.15809 605.057 2.13344C605.067 2.10879 605.071 2.08197 605.069 2.05536C605.066 2.02875 605.057 2.00318 605.042 1.98092C605.027 1.95866 605.007 1.9404 604.984 1.92776C603.516 1.14887 601.343 1.23998 601.343 1.23998C594.243 1.68887 590.683 8.33331 589.531 11.5378C588.606 14.1066 589.892 15.1922 590.437 15.5211C590.46 15.5346 590.486 15.5421 590.512 15.5428C590.539 15.5435 590.565 15.5375 590.589 15.5252C590.612 15.513 590.632 15.495 590.647 15.4728C590.661 15.4507 590.67 15.4253 590.672 15.3989C590.732 14.4211 591.113 10.6978 593.426 8.72554C595.077 7.31665 597.874 7.10998 599.776 7.15887C599.689 4.27109 601.931 2.46443 601.931 2.46443C601.931 2.46443 601.007 5.02887 601.292 7.13109C601.297 7.16694 601.314 7.20019 601.339 7.22555ZM615.782 10.1311C615.326 10.0829 615.293 9.66187 615.262 9.27274C615.236 8.94346 615.212 8.63706 614.936 8.59887C614.828 8.58449 614.758 8.91211 614.686 9.24485C614.604 9.63179 614.52 10.0257 614.372 9.89665C613.947 9.52241 614.103 8.84127 614.217 8.3471L614.217 8.34708C614.248 8.2133 614.276 8.09323 614.288 7.99665C614.3 7.90144 614.319 7.80117 614.337 7.70536C614.406 7.34496 614.463 7.04742 614.076 7.31776C613.586 7.65887 613.325 8.37776 613.158 8.99109C613.044 9.411 613.165 9.68035 613.327 10.0378C613.4 10.2005 613.482 10.3815 613.553 10.6033C613.78 11.3133 613.357 11.07 613.357 11.07C611.077 9.70332 612.72 6.82887 612.72 6.82887C613.708 5.14109 615.187 5.64554 615.187 5.64554C615.474 5.74776 615.547 5.91554 615.547 6.27443C615.547 6.63331 615.643 6.74776 616.067 6.84776C616.492 6.94887 616.692 7.46998 616.692 8.31331C616.692 9.15776 616.158 10.1711 615.782 10.1311ZM617.27 9.15887C617.086 10.0178 617.66 10.1311 617.66 10.1311C617.66 10.1311 618.499 9.58443 618.499 8.89998C618.499 7.31776 617.895 7.31776 617.895 7.31776C617.542 7.46998 617.426 7.98554 617.426 8.42998C617.426 8.75265 617.392 8.83812 617.338 8.97256L617.338 8.97258L617.338 8.97261L617.338 8.97266L617.338 8.97268L617.338 8.97278L617.338 8.97291L617.338 8.97294L617.338 8.97303C617.318 9.02319 617.295 9.08019 617.27 9.15887ZM623.134 22.7033C625.182 22.7033 625.405 21.0511 625.405 21.0511C625.405 20.1776 624.574 20.7367 624.053 21.0875L624.023 21.1078C623.503 21.4578 623.12 21.5322 622.965 21.2155C622.809 20.8989 623.06 20.6822 623.06 20.6822C623.427 20.3155 623.999 19.3122 623.999 18.3378C623.869 12.6822 618.364 11.5378 618.364 11.5378C620.159 12.9127 620.08 14.257 620.024 15.1994C620.016 15.3491 620.007 15.4887 620.007 15.6166C619.672 14.8404 619.236 14.1654 618.795 13.4829C618.73 13.3818 618.664 13.2806 618.599 13.1789C619.304 19.8066 621.089 22.7033 623.134 22.7033ZM623.04 13.09C624.508 14.6066 625.926 14.2478 625.926 14.2478C624.556 13.97 623.756 12.3233 623.756 12.3233C623.609 13.1544 623.04 13.09 623.04 13.09ZM617.66 24.2C617.66 24.2 616.17 27.0144 614.146 27.0144C613.319 27.0144 612.729 26.4244 612.729 25.6078C612.729 24.7911 613.731 21.8666 618.085 21.8666C619.126 21.8666 619.941 22.0567 619.941 22.6844C619.941 23.3122 618.953 24.3922 617.66 24.2ZM623.034 11.1089L619.283 9.97554C618.859 10.84 619.593 11.2144 619.593 11.2144C620.503 11.4964 621.417 11.7627 622.335 12.0133C623.723 12.3889 623.034 11.1089 623.034 11.1089ZM600.837 15.6166C598.176 16.09 597.235 15.2744 597.235 14.5866C597.235 12.4866 603.28 10.86 604.982 10.8344C605.173 11.1228 605.071 11.223 604.9 11.3901C604.764 11.523 604.584 11.6983 604.475 12.0444C604.229 12.8255 603.628 13.0733 602.747 13.1789C601.862 13.3033 601.033 13.6846 600.364 14.2755C599.824 14.7711 600.364 14.9978 601.461 14.6822C602.099 14.4988 602.404 14.5868 602.639 14.6544C602.799 14.7007 602.926 14.7375 603.104 14.6711C603.37 14.5726 603.333 14.3414 603.302 14.1521C603.283 14.0275 603.266 13.921 603.339 13.8822C603.623 13.7355 604.21 14.1355 604.21 14.1355L605.738 15.1066C605.738 15.1066 604.021 15.9789 603.9 16.0466C603.779 16.1133 603.574 16.2266 603.574 16.4611C603.574 16.7655 604.211 16.7295 604.621 16.7063L604.621 16.7063C604.713 16.7011 604.793 16.6966 604.852 16.6966C605.18 16.6966 605.23 17.23 605.23 17.23C604.729 17.8078 603.428 17.8122 603.428 17.8122C603.68 18.3454 604.952 18.3395 605.497 18.3369H605.497H605.497H605.497H605.497H605.497C605.579 18.3365 605.644 18.3362 605.687 18.3378C605.966 18.3472 606.034 18.6792 606.149 19.2386C606.17 19.3422 606.193 19.4536 606.219 19.5722C606.386 20.3311 607.448 20.6544 607.448 20.6544C607.791 21.78 606.435 22.1055 605.538 22.1055C600.283 22.1055 600.837 15.6166 600.837 15.6166ZM606.714 16.09C606.714 16.09 607.37 18.9566 608.688 19.97C608.688 19.97 608.638 20.2589 608.223 20.2589C607.808 20.2589 607.024 19.5955 606.714 18.0466C606.403 16.4978 606.714 16.09 606.714 16.09ZM606.289 7.5522C606.289 7.5522 607.024 8.96443 608.688 8.96443C610.354 8.96443 610.851 7.88887 610.851 7.88887C608.199 9.35665 606.289 7.5522 606.289 7.5522ZM590.275 35.9345C590.275 35.9344 590.275 35.9344 590.275 35.9344H590.276C590.276 35.9344 590.276 35.9344 590.275 35.9345ZM590.275 35.9345C590.255 35.9387 589.825 36.0329 589.825 36.6111C589.825 37.2044 590.863 38.4166 591.631 38.4166C592.399 38.4166 592.535 37.7389 592.535 37.7389C592.535 36.8433 590.308 35.9476 590.275 35.9345Z" fill="#64626A"/>
<path fill-rule="evenodd" clip-rule="evenodd" d="M603.561 12.1439L603.562 12.1445V12.1434L603.561 12.1439ZM603.561 12.1439C602.86 11.4437 600.872 11.978 599.804 12.8834C598.705 13.8122 599.142 14.4356 599.142 14.4356C600.034 13.1789 601.432 12.6656 602.219 12.5656C603.164 12.4462 603.544 12.1573 603.561 12.1439ZM587.864 24.7534C587.879 24.7717 587.889 24.7929 587.894 24.8156C588.486 27.4697 591.615 28.4388 595.533 29.652C600.278 31.1214 606.18 32.9488 610.128 38.5622C610.168 38.6193 610.193 38.6857 610.201 38.7551C610.209 38.8246 610.198 38.8948 610.171 38.9592C610.144 39.0236 610.101 39.08 610.046 39.1231C609.991 39.1662 609.925 39.1946 609.856 39.2056C608.671 39.3956 607.33 39.4667 605.988 39.4922C605.484 39.5013 604.984 39.396 604.527 39.1842C604.07 38.9725 603.667 38.6599 603.348 38.27C600.288 34.5235 595.886 32.5929 592.35 31.0419C589.05 29.5946 586.503 28.4777 586.503 26.5245C586.503 25.4278 587.236 24.8989 587.677 24.7056C587.698 24.6963 587.721 24.6919 587.744 24.6926C587.768 24.6933 587.79 24.6991 587.811 24.7096C587.832 24.7202 587.85 24.7351 587.864 24.7534ZM602.773 16.9045C602.773 16.9045 602 17.11 602.207 18.1745C602.416 19.2478 603.291 19.2756 603.291 19.2756C602.53 18.3922 602.773 16.9045 602.773 16.9045ZM592.402 32.9463C591.426 32.5069 590.531 32.1031 589.846 31.7156C588.789 31.1167 588.764 31.9789 588.764 31.9789C588.764 32.9237 589.973 33.7349 591.351 34.6587C592.366 35.3395 593.472 36.0815 594.252 36.9834C595.506 38.4311 595.98 38.8589 597.745 38.8589C600.073 38.8589 599.653 38.1556 599.653 38.1556C598.734 35.7999 595.234 34.2226 592.402 32.9463ZM649.199 16.7222C648.465 16.0956 647.525 15.6778 646.545 15.6778C645.811 15.6778 644.831 16.1167 644.831 16.9945C644.831 17.9111 645.905 18.2674 646.599 18.4975L646.607 18.5L647.627 18.8134C649.77 19.4622 651.423 20.57 651.423 23.1222C651.423 24.69 651.056 26.3 649.832 27.3667C648.628 28.4111 647.015 28.8511 645.463 28.8511C643.524 28.8511 641.626 28.1811 640.054 27.0522L641.769 23.7489C642.769 24.6489 643.954 25.38 645.321 25.38C646.26 25.38 647.26 24.8989 647.26 23.7911C647.26 22.6957 645.837 22.2836 644.96 22.0298L644.831 21.9922C642.321 21.2611 640.668 20.5911 640.668 17.5389C640.668 14.3389 642.892 12.2478 645.974 12.2478C647.525 12.2478 649.424 12.75 650.791 13.5445L649.199 16.7222ZM658.155 19.8178C659.155 19.8178 660.073 20.4378 660.257 21.5111V21.5122H655.951C656.173 20.4378 657.073 19.8178 658.155 19.8178ZM663.649 23.66H655.89C655.89 25.2111 656.684 26.06 658.216 26.06C659.012 26.06 659.583 25.8078 659.992 25.0922H663.564C662.972 27.7178 660.625 28.7811 658.236 28.7811C654.766 28.7811 652.174 26.7778 652.174 23.0756C652.174 19.5 654.534 17.3478 657.941 17.3478C661.575 17.3478 663.649 19.65 663.649 23.31V23.66ZM668.313 19.6022H668.192V17.6934H664.58V28.4334H668.192V24.1045C668.192 22.2634 668.727 20.8634 670.789 20.8634C671.361 20.8634 671.803 20.9256 672.385 21.2189V17.5734H671.702C670.252 17.5734 669.028 18.0511 668.313 19.6022Z" fill="#64626A"/>
<path fill-rule="evenodd" clip-rule="evenodd" d="M687.358 15.7191C688.5 15.7191 689.439 14.7579 689.439 13.5868V13.5857C689.439 12.4157 688.5 11.4524 687.358 11.4524C686.213 11.4524 685.276 12.4157 685.276 13.5857C685.276 14.7579 686.213 15.7191 687.358 15.7191ZM678.437 23.1924L680.928 17.6924H685.092L679.622 28.4335H677.254L671.763 17.6924H675.926L678.437 23.1924ZM685.434 28.4335H689.279V17.6924H685.434V28.4335ZM698.716 21.1979C698.132 20.7791 697.506 20.4457 696.792 20.4457C695.363 20.4457 694.238 21.5746 694.238 23.0591C694.238 24.6068 695.323 25.6935 696.854 25.6935C697.508 25.6935 698.132 25.4224 698.716 24.9613V28.1813C697.783 28.6002 696.996 28.788 696.097 28.788C692.995 28.788 690.4 26.4257 690.4 23.1846C690.4 19.7346 692.976 17.3513 696.262 17.3513C697.119 17.3513 698.017 17.5591 698.716 17.9779V21.1979ZM705.707 19.8179C706.707 19.8179 707.626 20.438 707.809 21.5113V21.5124H703.502C703.726 20.4379 704.625 19.8179 705.707 19.8179ZM711.18 23.6602H703.441C703.441 25.2113 704.237 26.0602 705.768 26.0602C706.564 26.0602 707.136 25.808 707.543 25.0924H711.117C710.525 27.718 708.177 28.7813 705.788 28.7813C702.318 28.7813 699.725 26.778 699.725 23.0757C699.725 19.5002 702.074 17.3479 705.484 17.3479C709.116 17.3479 711.18 19.6502 711.18 23.3102V23.6602ZM714.676 28.4335H718.52V16.1413H721.898V12.6802H711.297V16.1413H714.676V28.4335ZM722.713 28.4335H726.442V17.6924H722.713V28.4335ZM724.668 15.7191C725.811 15.7191 726.75 14.7579 726.75 13.5868V13.5857C726.75 12.4157 725.811 11.4524 724.668 11.4524C723.525 11.4524 722.586 12.4157 722.586 13.5857C722.586 14.7579 723.525 15.7191 724.668 15.7191ZM732.499 28.4335H728.772V20.7957H727.607V17.6935H728.772V14.4713H732.499V17.6935H734.597V20.7957H732.499V28.4335ZM740.773 25.4846C739.261 25.4846 738.384 24.4391 738.384 23.0802C738.384 21.7624 739.261 20.6546 740.773 20.6546C742.282 20.6546 743.16 21.7624 743.16 23.0802C743.16 24.4391 742.282 25.4846 740.773 25.4846ZM746.713 28.4335H742.983V27.263C742.326 28.3213 741.049 28.788 739.833 28.788C736.731 28.788 734.545 26.1324 734.545 23.0591C734.545 19.9846 736.663 17.3502 739.766 17.3502C740.971 17.3502 742.169 17.8102 742.983 18.7513V17.6935H746.713V28.4335ZM751.727 19.1246H751.606V17.6935H747.877V28.4335H751.605V22.8713C751.605 21.5324 752.034 20.3824 753.544 20.3824C755.247 20.3824 755.229 21.9278 755.218 22.9696L755.218 22.9708C755.217 23.0526 755.216 23.1312 755.216 23.2057V28.4335H758.945V21.8046C758.945 19.1691 757.856 17.3691 755.039 17.3691C753.59 17.3691 752.584 17.8124 751.727 19.1246ZM760.925 17.0957V17.5735H761.278C761.294 17.5735 761.31 17.5736 761.326 17.5739L761.362 17.5744C761.595 17.578 761.862 17.5822 761.862 17.3557C761.862 17.1202 761.669 17.0957 761.45 17.0957H760.925ZM761.801 18.648H762.102L761.64 17.7757C761.883 17.7668 762.126 17.6202 762.126 17.2535C762.126 16.8602 761.83 16.7379 761.499 16.7379H760.692V18.648H760.925V17.8124H761.335L761.801 18.648ZM759.999 17.7002C759.999 18.4813 760.618 19.0891 761.359 19.0891C762.102 19.0891 762.721 18.4813 762.721 17.7002C762.721 16.9146 762.102 16.3113 761.359 16.3113C760.618 16.3113 759.999 16.9146 759.999 17.7002ZM761.359 16.0413C760.453 16.0413 759.736 16.7757 759.736 17.7002C759.736 18.6246 760.453 19.3602 761.359 19.3602C762.266 19.3602 762.984 18.6246 762.984 17.7002C762.984 16.7757 762.266 16.0413 761.359 16.0413Z" fill="#64626A"/>
<path fill-rule="evenodd" clip-rule="evenodd" d="M850.968 19.3473L850.92 19.4485C849.954 21.4811 848.177 22.6471 846.044 22.6471C842.953 22.6471 840.534 20.2087 840.534 17.0965C840.534 13.905 842.936 11.4989 846.121 11.4989C848.185 11.4989 849.754 12.4632 850.783 14.3666L850.838 14.4679L853.954 12.4807L853.901 12.3934C852.283 9.64343 849.374 8.00183 846.121 8.00183C840.924 8.00183 837.004 11.9125 837.004 17.0983C837.004 22.3695 840.839 26.1956 846.121 26.1956C849.526 26.1956 852.534 24.3096 854.168 21.1512L854.217 21.0561L850.968 19.3473ZM900.584 8.89201H897.084V12.0635H900.584V8.89201ZM901.858 22.7212V25.8316L901.86 25.8299V25.8316H913.405V22.7466H906.558L901.86 25.8299L901.858 22.7212ZM897.037 13.123H900.537V25.87H897.037V13.123ZM861.336 12.8804C857.685 12.8711 854.716 15.8147 854.702 19.4581C854.693 21.2145 855.386 22.902 856.629 24.1464C857.871 25.3907 859.559 26.0891 861.32 26.0865C864.971 26.0865 867.932 23.1353 867.937 19.4918C867.941 15.8484 864.988 12.8897 861.336 12.8804ZM864.538 19.4581C864.538 17.6481 863.107 16.1418 861.32 16.1418C859.506 16.1418 858.125 17.6463 858.125 19.4581C858.125 21.2699 859.506 22.7745 861.32 22.7745C863.107 22.7719 864.539 21.2682 864.539 19.4581H864.538ZM887.208 13.0846H883.732L883.735 25.8238H887.233V18.8638C887.233 16.7265 888.332 15.8092 889.661 15.8092C891.218 15.8092 892.011 16.8068 892.011 18.5147V25.8316H895.562V18.0556C895.562 14.7672 893.748 12.8298 890.733 12.8298C889.277 12.8298 888.025 13.4651 887.208 14.5124V13.0846ZM913.605 19.4581C913.605 14.9453 916.928 12.8254 919.815 12.8254C921.476 12.8254 922.779 13.4363 923.621 14.33V13.0846H927.119V25.8316H923.621V24.4039C922.779 25.3979 921.424 26.0865 919.764 26.0865C917.055 26.0865 913.605 23.9483 913.605 19.4581ZM920.451 16.0161C922.342 16.0161 923.721 17.546 923.721 19.4328H923.723C923.723 21.3188 922.344 22.874 920.451 22.874C918.51 22.874 917.028 21.3964 917.028 19.4328C917.028 17.4692 918.51 16.0161 920.451 16.0161ZM928.534 13.0846H932.009V14.5124C932.827 13.4651 934.079 12.8298 935.535 12.8298C938.55 12.8298 940.364 14.7672 940.364 18.0556V25.8316H936.812V18.5147C936.812 16.8068 936.025 15.8092 934.462 15.8092C933.133 15.8092 932.035 16.7265 932.035 18.8638V25.8238H928.536L928.534 13.0846ZM875.028 12.8254C872.142 12.8254 868.818 14.9453 868.818 19.4581C868.818 23.9483 872.267 26.0865 874.971 26.0865C876.631 26.0865 877.984 25.3979 878.828 24.4039V25.6047C878.828 27.262 877.628 28.7404 875.737 28.7404C874.022 28.7404 872.85 27.8991 872.186 26.5735L869.094 28.3067C870.121 30.2948 872.496 31.9783 875.741 31.9783C880.059 31.9783 882.333 29.0721 882.333 25.4773V13.0846H878.835V14.4565C877.991 13.514 876.69 12.8254 875.028 12.8254ZM878.935 19.4328C878.935 17.546 877.556 16.0161 875.665 16.0161C873.723 16.0161 872.242 17.4692 872.242 19.4328C872.242 21.3964 873.723 22.874 875.665 22.874C877.556 22.874 878.935 21.3188 878.935 19.4328ZM948.984 13.0846V16.2203H946.579V20.2741C946.579 22.2622 946.835 22.5685 948.981 22.5685V25.8316H948.47C944.408 25.8316 943.079 24.4554 943.079 20.2994V16.2203H940.91V13.0846H943.084V8.8798H946.582V13.0846H948.984ZM949.726 10.401C949.559 10.5691 949.331 10.6636 949.094 10.6636C948.856 10.6636 948.629 10.5691 948.462 10.401C948.291 10.2349 948.196 10.0061 948.199 9.76823C948.2 9.36502 948.472 9.0126 948.863 8.90895C949.253 8.80529 949.665 8.97623 949.866 9.32574C950.068 9.67525 950.009 10.1162 949.723 10.401H949.726ZM948.327 9.76998C948.323 9.56597 948.404 9.36955 948.551 9.22714H948.549C948.768 9.00531 949.1 8.9382 949.388 9.05748C949.677 9.17676 949.864 9.45859 949.861 9.76998C949.864 9.97499 949.783 10.1725 949.637 10.3163C949.493 10.4611 949.297 10.5425 949.093 10.5425C948.889 10.5425 948.693 10.4611 948.549 10.3163C948.404 10.1718 948.324 9.97462 948.327 9.76998ZM949.076 9.27689C949.166 9.27223 949.257 9.28406 949.343 9.31179C949.443 9.35159 949.505 9.4525 949.495 9.55965C949.501 9.6366 949.464 9.71048 949.4 9.75339C949.356 9.77846 949.308 9.79449 949.258 9.80052C949.325 9.80722 949.387 9.84214 949.426 9.89652C949.459 9.94006 949.478 9.99285 949.48 10.0475V10.1199V10.1924C949.48 10.2095 949.482 10.2266 949.487 10.243L949.494 10.2552H949.332C949.332 10.254 949.331 10.2529 949.331 10.2517C949.331 10.2497 949.331 10.2476 949.332 10.2456V10.2351V10.2037V10.126C949.344 10.0401 949.308 9.9544 949.239 9.90176C949.178 9.87627 949.112 9.8655 949.047 9.87034H948.91V10.2552H948.735V9.27689H949.076ZM949.053 9.3947C949.124 9.38965 949.196 9.40193 949.262 9.43049C949.31 9.46812 949.335 9.52824 949.328 9.58895C949.32 9.64966 949.282 9.70211 949.226 9.72721C949.173 9.74427 949.117 9.75166 949.062 9.74903H948.905V9.3947H949.053Z" fill="#64626A"/>
<path fill-rule="evenodd" clip-rule="evenodd" d="M1030.63 8C1028.58 8 1026.85 8.68625 1025.71 9.94439C1024.46 11.2025 1024 13.0326 1024 15.2248V24.7562C1024 26.8149 1024.46 28.7593 1025.71 30.0365C1026.96 31.2947 1028.67 31.9809 1030.63 31.9809C1032.68 31.9809 1034.41 31.2947 1035.55 30.0365C1036.81 28.7784 1037.26 26.9484 1037.26 24.7562V19.4948C1037.26 19.2661 1037.03 19.0373 1036.81 19.0373H1030.97C1030.74 19.0373 1030.52 19.2661 1030.52 19.4948V23.4027C1030.52 23.6315 1030.74 23.8602 1030.97 23.8602H1032.47V24.7752C1032.47 25.5759 1032.25 26.2812 1031.9 26.7196C1031.56 27.1771 1031.11 27.2915 1030.54 27.2915C1029.98 27.2915 1029.51 27.0627 1029.17 26.7196C1028.83 26.2621 1028.6 25.5759 1028.6 24.7752V15.3582C1028.6 14.5576 1028.83 13.8523 1029.17 13.4138C1029.51 12.9563 1029.97 12.8419 1030.54 12.8419C1031.09 12.8419 1031.56 13.0707 1031.9 13.4138C1032.25 13.8713 1032.47 14.5576 1032.47 15.3582V16.2732C1032.47 16.502 1032.7 16.6164 1032.82 16.6164H1036.81C1037.03 16.6164 1037.15 16.502 1037.15 16.2732V15.3582C1037.15 13.2994 1036.69 11.3551 1035.44 10.0778C1034.41 8.68626 1032.57 8 1030.63 8ZM1065.74 8.34314H1069.73C1069.98 8.34314 1070.09 8.57188 1070.11 8.68625V24.6418C1070.11 26.834 1069.66 28.664 1068.4 29.9222C1067.26 31.1803 1065.53 31.8666 1063.48 31.8666C1061.53 31.8666 1059.82 31.1803 1058.56 29.9222C1057.31 28.645 1056.85 26.7006 1056.85 24.6418V8.68625C1056.85 8.4575 1056.97 8.34314 1057.19 8.34314H1061.18C1061.3 8.34314 1061.53 8.4575 1061.53 8.68625V24.5274C1061.53 25.328 1061.75 25.8999 1062.1 26.3574C1062.44 26.7006 1062.91 26.9293 1063.46 26.9293C1064.03 26.9293 1064.49 26.8149 1064.83 26.3574C1065.17 25.8999 1065.4 25.328 1065.4 24.5274V8.68625C1065.4 8.4575 1065.52 8.34314 1065.74 8.34314ZM1099.37 8.34314H1103.36C1103.59 8.34314 1103.7 8.57188 1103.7 8.68625V31.0469C1103.7 31.1612 1103.59 31.39 1103.36 31.39H1099.37C1099.26 31.39 1099.03 31.2756 1099.03 31.0469V22.1064H1095.04V31.0469C1095.04 31.1612 1094.93 31.39 1094.7 31.39H1090.71C1090.59 31.39 1090.37 31.2756 1090.37 31.0469V8.68625C1090.37 8.57188 1090.48 8.34314 1090.71 8.34314H1094.7C1094.81 8.34314 1095.04 8.4575 1095.04 8.68625V17.3979H1099.03V8.68625C1099.03 8.57188 1099.14 8.34314 1099.37 8.34314ZM1080.58 26.8149C1081.28 26.8149 1081.74 26.7005 1082.08 26.243C1082.44 25.7665 1082.56 25.2137 1082.52 24.2605C1082.52 23.5743 1082.29 23.0024 1081.95 22.5449C1081.61 22.2018 1081.15 21.973 1080.58 21.973H1078.3V26.8149H1080.58ZM1078.42 13.0516H1080.35C1080.92 13.0516 1081.38 13.166 1081.72 13.6235C1082.06 13.9666 1082.18 14.5385 1082.18 15.2438C1082.18 15.9492 1082.06 16.502 1081.72 16.9595C1081.38 17.3026 1080.92 17.5314 1080.47 17.5314H1078.42V13.0516ZM1086.87 15.2248C1086.87 17.3026 1085.62 18.9039 1084.93 19.5902C1085.64 20.0286 1087.35 21.6489 1087.48 24.394C1087.48 26.6815 1086.66 28.1874 1085.98 29.1025C1084.71 30.7228 1082.77 31.5234 1080.72 31.5234H1074.08C1073.97 31.5234 1073.74 31.409 1073.74 31.1803V8.80063C1073.74 8.68625 1073.86 8.45751 1074.08 8.45751H1080.33C1082.29 8.45751 1084 9.14376 1085.26 10.5163C1085.96 11.3169 1086.87 12.8038 1086.87 15.2248ZM1048.59 17.3979C1048.24 17.8554 1047.67 18.0842 1046.97 18.0842H1045.03V13.0516H1046.97C1047.66 13.0516 1048.23 13.2804 1048.59 13.7379C1049.04 14.1954 1049.16 14.7673 1049.16 15.5679C1049.16 16.3685 1049.06 16.9404 1048.59 17.3979ZM1051.27 21.4208L1051.26 21.4209C1051.22 21.4577 1051.17 21.4954 1051.11 21.5346L1054.06 31.0278C1054.06 31.1422 1054.06 31.3709 1053.94 31.3709C1053.89 31.3709 1053.83 31.3995 1053.77 31.4281C1053.72 31.4567 1053.66 31.4853 1053.6 31.4853H1049.38C1049.27 31.4853 1049.04 31.3709 1049.04 31.2566L1046.51 22.7736H1045.15V31.0469C1045.15 31.1612 1045.03 31.39 1044.81 31.39H1040.81C1040.7 31.39 1040.47 31.2756 1040.47 31.0469V8.68625C1040.47 8.57188 1040.59 8.34314 1040.81 8.34314H1047.45C1049.4 8.45752 1051.11 9.14376 1052.25 10.5163C1053.16 11.4504 1054.08 13.0326 1054.08 15.4535C1054.08 17.9698 1053.05 19.5901 1052.25 20.5052C1051.95 20.9104 1051.65 21.1361 1051.27 21.4208ZM1132.51 26.243C1132.17 26.7005 1131.71 26.8149 1131.01 26.8149H1128.73V21.973H1131.01C1131.58 21.973 1132.03 22.2018 1132.38 22.5449C1132.72 23.0024 1132.95 23.5743 1132.95 24.2605C1133.08 25.2137 1132.87 25.7665 1132.51 26.243ZM1130.89 13.0516H1128.96V17.5314H1131.01C1131.46 17.5314 1131.92 17.3026 1132.26 16.9595C1132.6 16.502 1132.72 15.9492 1132.72 15.2438C1132.72 14.5385 1132.6 13.9666 1132.26 13.6235C1131.92 13.166 1131.46 13.0516 1130.89 13.0516ZM1135.47 19.5902C1136.16 18.9039 1137.41 17.3026 1137.41 15.2248C1137.41 12.8038 1136.5 11.3169 1135.8 10.5163C1134.54 9.14376 1132.83 8.45751 1130.88 8.45751H1124.57C1124.34 8.45751 1124.22 8.68625 1124.22 8.80063V31.1803C1124.22 31.409 1124.45 31.5234 1124.57 31.5234H1131.24C1133.29 31.5234 1135.23 30.7228 1136.5 29.1025C1137.18 28.1874 1138 26.6815 1138 24.394C1137.77 21.6489 1136.06 20.0286 1135.47 19.5902ZM1116.17 8.34314H1120.16C1120.41 8.34314 1120.63 8.57188 1120.52 8.68625V24.6418C1120.52 26.834 1120.06 28.664 1118.81 29.9222C1117.67 31.1803 1115.94 31.8666 1113.89 31.8666C1111.93 31.8666 1110.22 31.1803 1108.97 29.9222C1107.71 28.645 1107.26 26.7006 1107.26 24.6418V8.68625C1107.26 8.4575 1107.37 8.34314 1107.6 8.34314H1111.61C1111.72 8.34314 1111.95 8.4575 1111.95 8.68625V24.5274C1111.95 25.328 1112.18 25.8999 1112.52 26.3574C1112.86 26.7006 1113.34 26.9293 1113.89 26.9293C1114.46 26.9293 1114.92 26.8149 1115.26 26.3574C1115.6 25.8999 1115.83 25.328 1115.83 24.5274V8.68625C1115.83 8.4575 1115.94 8.34314 1116.17 8.34314Z" fill="#64626A"/>
</svg>
