<svg width="199" height="21" viewBox="0 0 199 21" fill="none" xmlns="http://www.w3.org/2000/svg">
<g clip-path="url(#clip0)">
<path d="M105.1 5.328C101.086 5.328 98.044 8.622 98.062 13.122C98.044 16.29 99.826 18.252 102.922 18.252C106.162 18.252 108.142 16.524 108.862 13.968L108.916 13.788H106.936L106.864 13.968C106.234 15.642 105.1 16.74 103.228 16.74C101.41 16.74 100.222 15.534 100.222 12.924C100.222 9.432 102.112 6.84 104.83 6.84C106.72 6.84 107.728 7.632 107.728 9.576V9.756H109.708L109.726 9.576C109.906 7.128 108.34 5.328 105.1 5.328ZM116.615 8.19C112.709 8.19 110.999 11.322 110.999 14.022C110.999 16.29 112.241 18.252 115.247 18.252C119.135 18.252 120.845 15.12 120.845 12.42C120.845 10.152 119.603 8.19 116.615 8.19ZM115.445 16.812C113.843 16.812 113.123 15.552 113.123 13.968C113.123 11.88 114.239 9.63 116.399 9.63C118.019 9.63 118.721 10.89 118.721 12.456C118.721 14.544 117.623 16.812 115.445 16.812ZM126.368 4.77H124.406L122.57 15.138C122.39 16.092 122.336 16.506 122.336 16.848C122.336 17.82 122.93 18.108 123.938 18.108C124.388 18.108 124.802 18.072 125.198 18.018L125.432 16.668C124.73 16.722 124.424 16.632 124.424 16.02C124.424 15.804 124.46 15.552 124.55 15.084L126.368 4.77ZM131.496 4.77H129.534L127.698 15.138C127.518 16.092 127.464 16.506 127.464 16.848C127.464 17.82 128.058 18.108 129.066 18.108C129.516 18.108 129.93 18.072 130.326 18.018L130.56 16.668C129.858 16.722 129.552 16.632 129.552 16.02C129.552 15.804 129.588 15.552 129.678 15.084L131.496 4.77ZM137.949 8.19C135.663 8.19 133.953 9.378 133.539 11.466H135.519C135.789 10.278 136.437 9.63 137.841 9.63C138.849 9.63 139.209 10.17 139.209 10.854C139.209 11.124 139.173 11.43 139.083 12.006L139.047 12.222C135.231 11.952 132.513 13.14 132.513 15.75C132.513 17.46 133.773 18.252 135.141 18.252C136.167 18.252 137.013 18.054 137.625 17.514L138.273 16.632L138.219 18H140.163C140.217 16.938 140.289 16.29 140.415 15.57L141.009 12.222C141.117 11.574 141.189 11.07 141.189 10.62C141.189 9.198 140.253 8.19 137.949 8.19ZM138.651 14.418C138.381 15.84 137.157 16.812 136.095 16.812C135.213 16.812 134.619 16.362 134.619 15.516C134.619 13.896 136.545 13.266 138.813 13.518L138.651 14.418ZM149.479 8.19C148.507 8.19 147.517 8.46 146.905 8.91L146.005 9.918L146.923 4.77H144.943L142.603 18H144.583L144.835 16.56L145.285 17.532C145.699 17.964 146.653 18.252 147.445 18.252C151.279 18.252 153.097 15.084 153.097 12.06C153.097 9.792 151.873 8.19 149.479 8.19ZM147.517 16.812C145.663 16.812 145.069 15.264 145.357 13.608L145.447 13.122C145.897 10.566 147.355 9.63 148.831 9.63C150.253 9.63 150.973 10.656 150.973 12.24C150.973 14.544 149.713 16.812 147.517 16.812ZM160.029 8.19C156.123 8.19 154.413 11.322 154.413 14.022C154.413 16.29 155.655 18.252 158.661 18.252C162.549 18.252 164.259 15.12 164.259 12.42C164.259 10.152 163.017 8.19 160.029 8.19ZM158.859 16.812C157.257 16.812 156.537 15.552 156.537 13.968C156.537 11.88 157.653 9.63 159.813 9.63C161.433 9.63 162.135 10.89 162.135 12.456C162.135 14.544 161.037 16.812 158.859 16.812ZM171.546 8.208C171.06 8.208 170.466 8.406 169.98 8.748L168.918 10.08L169.206 8.46H167.244L165.552 18H167.532L168.396 13.032C168.846 10.53 170.286 9.738 171.924 9.864L172.194 8.316C172.014 8.244 171.816 8.208 171.546 8.208ZM177.43 8.19C175.144 8.19 173.434 9.378 173.02 11.466H175C175.27 10.278 175.918 9.63 177.322 9.63C178.33 9.63 178.69 10.17 178.69 10.854C178.69 11.124 178.654 11.43 178.564 12.006L178.528 12.222C174.712 11.952 171.994 13.14 171.994 15.75C171.994 17.46 173.254 18.252 174.622 18.252C175.648 18.252 176.494 18.054 177.106 17.514L177.754 16.632L177.7 18H179.644C179.698 16.938 179.77 16.29 179.896 15.57L180.49 12.222C180.598 11.574 180.67 11.07 180.67 10.62C180.67 9.198 179.734 8.19 177.43 8.19ZM178.132 14.418C177.862 15.84 176.638 16.812 175.576 16.812C174.694 16.812 174.1 16.362 174.1 15.516C174.1 13.896 176.026 13.266 178.294 13.518L178.132 14.418ZM185.72 9.9H187.466L187.718 8.514H185.972L186.368 6.228H184.406L184.01 8.514H182.696L182.444 9.9H183.758L182.84 15.084C182.696 15.894 182.642 16.362 182.642 16.668C182.642 17.712 183.29 18.18 184.64 18.18C185.126 18.18 185.63 18.108 186.062 18L186.314 16.65C185.216 16.812 184.712 16.65 184.712 15.93C184.712 15.714 184.73 15.498 184.838 14.904L185.72 9.9ZM197.108 13.77C197.288 13.194 197.396 12.456 197.396 11.844C197.396 9.702 196.046 8.19 193.598 8.19C189.908 8.19 188.162 11.43 188.162 14.436C188.162 16.974 189.764 18.252 191.978 18.252C194.102 18.252 196.046 17.172 196.82 14.904H194.804C194.408 16.11 193.382 16.812 192.23 16.812C191.078 16.812 190.25 16.092 190.25 14.4C190.25 14.202 190.25 13.986 190.268 13.77H197.108ZM193.364 9.63C194.642 9.63 195.398 10.44 195.398 11.844C195.398 12.006 195.398 12.186 195.38 12.384H190.502C190.898 10.89 191.78 9.63 193.364 9.63Z" fill="#8E8C95"/>
<rect y="10" width="65" height="2" fill="#D1D0D6"/>
</g>
<defs>
<clipPath id="clip0">
<rect width="199" height="21" fill="white"/>
</clipPath>
</defs>
</svg>
